HIERARCHY
ROOT Hips
{
  OFFSET 47.6842 100.082 -2.47709
  CHANNELS 6 Xposition Yposition Zposition Zrotation Xrotation Yrotation
  JOINT spine
  {
    OFFSET 0 8.81705 0.507024
    CHANNELS 3 Zrotation Xrotation Yrotation
    JOINT spine1
    {
      OFFSET 0 10.7766 0
      CHANNELS 3 Zrotation Xrotation Yrotation
      JOINT spine2
      {
        OFFSET 0 10.3259 0
        CHANNELS 3 Zrotation Xrotation Yrotation
        JOINT Neck
        {
          OFFSET 0 26.511 1.26395
          CHANNELS 3 Zrotation Xrotation Yrotation
          JOINT Head
          {
            OFFSET 0 8.00966 0
            CHANNELS 3 Zrotation Xrotation Yrotation
            End Site
            {
              OFFSET 0 19.3879 -6.39386
            }
          }
        }
        JOINT RightShoulder
        {
          OFFSET -4.34795 11.1512 -0.605422
          CHANNELS 3 Zrotation Xrotation Yrotation
          JOINT RightArm
          {
            OFFSET 0 14.6258 0
            CHANNELS 3 Zrotation Xrotation Yrotation
            JOINT RightArmRoll
            {
              OFFSET 0 7.3834 0
              CHANNELS 3 Zrotation Xrotation Yrotation
              JOINT RightForeArm
              {
                OFFSET 0 21.5052 0
                CHANNELS 3 Zrotation Xrotation Yrotation
                JOINT RightForeArmRoll
                {
                  OFFSET 0 8.28532 0
                  CHANNELS 3 Zrotation Xrotation Yrotation
                  JOINT RightHand
                  {
                    OFFSET 0 16.6268 0
                    CHANNELS 3 Zrotation Xrotation Yrotation
                    End Site
                    {
                      OFFSET 0 0 0
                    }
                  }
                }
              }
            }
          }
        }
        JOINT LeftShoulder
        {
          OFFSET 4.34795 11.1512 -0.605422
          CHANNELS 3 Zrotation Xrotation Yrotation
          JOINT LeftArm
          {
            OFFSET 0 14.6258 0
            CHANNELS 3 Zrotation Xrotation Yrotation
            JOINT LeftArmRoll
            {
              OFFSET 0 7.3834 0
              CHANNELS 3 Zrotation Xrotation Yrotation
              JOINT LeftForeArm
              {
                OFFSET 0 21.5052 0
                CHANNELS 3 Zrotation Xrotation Yrotation
                JOINT LeftForeArmRoll
                {
                  OFFSET 0 8.28532 0
                  CHANNELS 3 Zrotation Xrotation Yrotation
                  JOINT LeftHand
                  {
                    OFFSET 0 16.6268 0
                    CHANNELS 3 Zrotation Xrotation Yrotation
                    End Site
                    {
                      OFFSET 0 0 0
                    }
                  }
                }
              }
            }
          }
        }
      }
    }
  }
  JOINT RightUpLeg
  {
    OFFSET -7.8151 -1.43309 -1.20217
    CHANNELS 3 Zrotation Xrotation Yrotation
    JOINT RightUpLegRoll
    {
      OFFSET 0 19.4959 0
      CHANNELS 3 Zrotation Xrotation Yrotation
      JOINT RightLeg
      {
        OFFSET 0 -24.1427 0
        CHANNELS 3 Zrotation Xrotation Yrotation
        JOINT RightLegRoll
        {
          OFFSET 0 24.2217 0
          CHANNELS 3 Zrotation Xrotation Yrotation
          JOINT RightFoot
          {
            OFFSET 0 20.1605 0
            CHANNELS 3 Zrotation Xrotation Yrotation
            JOINT RightToeBase
            {
              OFFSET 0 16.8532 0
              CHANNELS 3 Zrotation Xrotation Yrotation
              End Site
              {
                OFFSET 0.00714343 8.16187 -0.94078
              }
            }
          }
        }
      }
    }
  }
  JOINT LeftUpLeg
  {
    OFFSET 7.8151 -1.43309 -1.20217
    CHANNELS 3 Zrotation Xrotation Yrotation
    JOINT LeftUpLegRoll
    {
      OFFSET 0 19.496 0
      CHANNELS 3 Zrotation Xrotation Yrotation
      JOINT LeftLeg
      {
        OFFSET 0 24.1426 0
        CHANNELS 3 Zrotation Xrotation Yrotation
        JOINT LeftLegRoll
        {
          OFFSET 0 24.4456 0
          CHANNELS 3 Zrotation Xrotation Yrotation
          JOINT LeftFoot
          {
            OFFSET 0 19.9366 0
            CHANNELS 3 Zrotation Xrotation Yrotation
            JOINT LeftToeBase
            {
              OFFSET 0 16.8532 0
              CHANNELS 3 Zrotation Xrotation Yrotation
              End Site
              {
                OFFSET -0.0320138 8.16187 -0.94078
              }
            }
          }
        }
      }
    }
  }
}
MOTION
Frames: 4
Frame Time: 0.00208333
50.9547 89.1524 -1.57831 1.62548 -0.414874 0.990668 0.332885 -0.278345 0.367191 0.665271 3.44802 0.692684 0.65784 5.09297 0.682198 -12.5281 15.0208 2.04444 6.76531 -12.5527 0.287669 48.573 -6.26461 -3.36072 120.324 4.87193 2.85976 -1.03215e-005 -6.01834e-007 -1.0499e-006 14.865 37.6141 -5.8392 -1.29589e-005 -5.12718e-006 -3.00976 8.02896 -4.95146 0.697687 -66.7647 -1.07871 1.56364 -101.923 13.9965 6.11259 1.27518e-007 8.72779e-008 9.26074e-007 -19.3433 24.0223 4.39065 -1.30939e-006 2.86142e-006 3 -8.02887 -4.95144 -0.697686 174.415 24.6188 6.13733 180 7.01491e-015 178.702 177.713 59.564 179.86 -1.01053e-006 -4.48281e-006 2.21216 -137.315 80.9715 140.472 8.26959 27.1996 -3.54485 -177.983 24.5593 -5.67643 4.54188e-006 -4.6773e-006 -1.44243 -10.3994 -57.3142 -5.12046 -1.6041e-006 -1.6164e-006 -1.80083 132.264 80.7685 -130.147 -8.20839 26.3932 3.5005 
50.9338 89.4937 -1.50219 1.59602 -0.36383 1.06317 0.339696 -0.322425 0.368589 0.679123 3.3599 0.694906 0.671667 5.00485 0.684178 -12.44 15.0544 2.01392 6.65982 -12.2956 0.24072 48.3945 -6.36517 -3.42694 120.429 4.38388 1.58003 -1.03215e-005 -6.01834e-007 -1.0499e-006 15.377 38.3196 -6.05911 -1.29589e-005 -5.12718e-006 -3.00976 8.02896 -4.95146 0.697687 -66.5646 -1.07012 1.53786 -102.04 13.7245 6.77168 1.27518e-007 8.72779e-008 9.26074e-007 -19.6386 24.7758 4.57744 -1.30939e-006 2.86142e-006 3 -8.02887 -4.95144 -0.697686 174.264 24.248 6.2972 180 7.01492e-015 178.706 177.284 58.8326 -179.892 -1.01053e-006 -4.48281e-006 2.16147 -135.055 81.2999 138.05 8.28099 27.361 -3.55002 -177.921 24.2114 -5.68192 4.54188e-006 -4.67731e-006 -1.43137 -10.4808 -56.5569 -5.08134 -1.6041e-006 -1.6164e-006 -1.75153 129.801 81.0516 -127.547 -8.21814 26.5292 3.49889 
50.8405 89.7427 -1.5205 1.5656 -0.315154 1.14127 0.346181 -0.36658 0.36901 0.692311 3.27163 0.695228 0.684851 4.91658 0.684267 -12.3398 15.0835 1.98193 6.54526 -12.0281 0.193185 48.2263 -6.46387 -3.49293 120.512 3.88253 0.267962 -1.03215e-005 -6.01834e-007 -1.0499e-006 15.8915 39.0098 -6.27851 -1.29589e-005 -5.12718e-006 -3.00976 8.02896 -4.95146 0.697687 -66.3535 -1.06257 1.51153 -102.161 13.4443 7.43979 1.27518e-007 8.72779e-008 9.26074e-007 -19.9323 25.5449 4.7708 -1.30939e-006 2.86142e-006 3 -8.02887 -4.95144 -0.697686 174.11 23.8618 6.46275 180 7.01493e-015 178.711 176.856 58.0797 -179.649 -1.01053e-006 -4.48281e-006 2.1098 -132.52 81.6237 135.35 8.29312 27.5321 -3.55555 -177.861 23.8503 -5.68336 4.54188e-006 -4.67731e-006 -1.42034 -10.5576 -55.7797 -5.03744 -1.6041e-006 -1.6164e-006 -1.70177 127.07 81.3265 -124.68 -8.22858 26.675 3.49793 
50.9446 90.1446 -1.42608 1.53457 -0.267739 1.22333 0.352284 -0.410953 0.368577 0.704725 3.18292 0.693901 0.69728 4.82786 0.682718 -12.2312 15.1092 1.94946 6.425 -11.7519 0.145889 48.0677 -6.55962 -3.5577 120.574 3.37064 -1.06451 -1.03215e-005 -6.01834e-007 -1.0499e-006 16.4005 39.6897 -6.49523 -1.29589e-005 -5.12718e-006 -3.00976 8.02896 -4.95146 0.697687 -66.1342 -1.05685 1.48537 -102.282 13.1582 8.116 1.27518e-007 8.72779e-008 9.26074e-007 -20.2233 26.3259 4.96949 -1.30939e-006 2.86142e-006 3 -8.02887 -4.95144 -0.697686 173.956 23.464 6.63096 180 7.01495e-015 178.715 176.436 57.3073 -179.417 -1.01053e-006 -4.48281e-006 2.05733 -129.665 81.9411 132.329 8.30611 27.7149 -3.56151 -177.804 23.4788 -5.68059 4.54188e-006 -4.67731e-006 -1.40945 -10.628 -54.9834 -4.98786 -1.6041e-006 -1.6164e-006 -1.65173 124.04 81.5899 -121.516 -8.23978 26.8315 3.49811 
